<svg xmlns="http://www.w3.org/2000/svg" xmlns:xlink="http://www.w3.org/1999/xlink"><symbol id="icon-alarm" viewBox="0 0 32 32">
<title>alarm</title>
<path d="M30.74 10.003c-1.623-3.716-4.527-6.62-8.142-8.204l-0.101-0.039c1-0.787 2.258-1.26 3.629-1.26 3.244 0 5.874 2.63 5.874 5.874v0c0 0.001 0 0.002 0 0.003 0 1.375-0.475 2.639-1.269 3.637l0.009-0.012zM30.5 16.5c0 3.852-1.512 7.343-3.963 9.94l2.029 2.028c0.258 0.267 0.417 0.63 0.417 1.031 0 0.819-0.664 1.483-1.483 1.483-0.401 0-0.765-0.159-1.032-0.418l-2.18-2.178c-2.306 1.635-5.178 2.613-8.278 2.613-0.004 0-0.008 0-0.012 0h0.001c-0.004 0-0.008 0-0.012 0-3.094 0-5.961-0.974-8.309-2.633l0.045 0.030-2.163 2.163c-0.274 0.289-0.661 0.47-1.090 0.47-0.828 0-1.5-0.672-1.5-1.5 0-0.429 0.18-0.816 0.468-1.089l0.001-0.001 2.011-2.012c-2.443-2.596-3.951-6.083-3.951-9.928 0-8.008 6.492-14.5 14.5-14.5s14.5 6.492 14.5 14.5zM16 5c-6.351 0-11.5 5.148-11.5 11.5 0 6.351 5.149 11.5 11.5 11.5s11.5-5.15 11.5-11.5c0-6.352-5.15-11.5-11.5-11.5zM22 18h-6c-0.828 0-1.5-0.672-1.5-1.5v0-8c0-0.828 0.672-1.5 1.5-1.5s1.5 0.672 1.5 1.5v0 6.5h4.5c0.828 0 1.5 0.672 1.5 1.5s-0.672 1.5-1.5 1.5v0zM1.287 10.205c-0.802-1.007-1.287-2.298-1.287-3.702 0-0.001 0-0.002 0-0.003v0c0-3.314 2.686-6 6-6v0c1.4 0 2.685 0.483 3.706 1.287-3.795 1.658-6.761 4.624-8.379 8.315l-0.040 0.103z"/>
</symbol><symbol id="icon-book" viewBox="0 0 32 32">
<title>book</title>
<path d="M31.065 25.89l-14.471 5.987c-0.175 0.078-0.379 0.123-0.594 0.123s-0.419-0.045-0.604-0.127l0.010 0.004-14.47-5.987c-0.554-0.229-0.936-0.765-0.936-1.39 0-0 0-0 0-0v0-23c0.001-0.828 0.672-1.499 1.5-1.499 0.207 0 0.404 0.042 0.583 0.117l-0.010-0.004 0.003 0.001 0.013 0.005 13.911 5.755 13.928-5.762c0.169-0.072 0.366-0.113 0.572-0.113 0.828 0 1.5 0.671 1.5 1.499v23c0 0 0 0 0 0 0 0.625-0.382 1.16-0.925 1.386l-0.010 0.004zM14.5 8.502l-11.5-4.759v19.754l11.5 4.759zM29 3.743l-11.5 4.76v19.753l11.5-4.76zM19.88 10.634l5.5-2.5c0.177-0.080 0.385-0.126 0.603-0.126 0.828 0 1.5 0.672 1.5 1.5 0 0.597-0.348 1.112-0.852 1.353l-0.009 0.004-5.5 2.5c-0.177 0.080-0.385 0.126-0.603 0.126-0.828 0-1.5-0.672-1.5-1.5 0-0.597 0.348-1.112 0.852-1.353l0.009-0.004zM19.88 16.134l5.5-2.5c0.182-0.085 0.396-0.135 0.621-0.135 0.828 0 1.499 0.671 1.499 1.499 0 0 0 0 0 0.001v-0c0 0 0 0 0 0 0 0.604-0.357 1.124-0.871 1.362l-0.009 0.004-5.5 2.5c-0.172 0.074-0.372 0.118-0.582 0.118-0.828 0-1.5-0.672-1.5-1.5 0-0.589 0.339-1.098 0.833-1.344l0.009-0.004zM19.88 21.634l5.5-2.5c0.177-0.080 0.385-0.126 0.603-0.126 0.828 0 1.5 0.672 1.5 1.5 0 0.597-0.348 1.112-0.852 1.353l-0.009 0.004-5.5 2.5c-0.177 0.080-0.385 0.126-0.603 0.126-0.828 0-1.5-0.672-1.5-1.5 0-0.597 0.348-1.112 0.852-1.353l0.009-0.004zM6 8c0.221 0 0.431 0.048 0.62 0.134l5.5 2.5c0.508 0.248 0.851 0.76 0.851 1.352 0 0.828-0.672 1.5-1.5 1.5-0.214 0-0.417-0.045-0.601-0.125l0.010 0.004-5.5-2.5c-0.522-0.242-0.878-0.762-0.878-1.365 0-0.828 0.67-1.499 1.498-1.5h0zM6 13.5c0.221 0 0.431 0.048 0.62 0.134l5.5 2.5c0.547 0.232 0.924 0.764 0.924 1.385 0 0.828-0.672 1.5-1.5 1.5-0.242 0-0.471-0.057-0.673-0.159l0.009 0.004v0.001l-5.5-2.5c-0.522-0.242-0.878-0.762-0.878-1.365 0-0.828 0.67-1.499 1.498-1.5h0zM6 19c0.221 0 0.431 0.048 0.62 0.134l5.5 2.5c0.508 0.248 0.851 0.76 0.851 1.352 0 0.828-0.672 1.5-1.5 1.5-0.214 0-0.417-0.045-0.601-0.125l0.010 0.004-5.5-2.5c-0.522-0.242-0.878-0.762-0.878-1.365 0-0.828 0.67-1.499 1.498-1.5h0z"/>
</symbol><symbol id="icon-facebook@2x" viewBox="0 0 12 26">
  <path d="M12.09.199v4.12s-3.038-.302-3.799.862c-.416.636-.169 2.5-.206 3.838h4.03c-.341 1.564-.585 2.624-.836 3.978H8.063v12.804H2.48V13.047H.106V9.02h2.349c.12-2.946.165-5.864 1.629-7.35C5.728-.001 7.297.199 12.089.199z"/>
</symbol><symbol id="icon-home" viewBox="0 0 32 32">
<title>home</title>
<path d="M32 17c0 0.828-0.672 1.5-1.5 1.5v0c-0.395-0.001-0.754-0.155-1.021-0.407l0.001 0.001-0.003 0.004-13.477-13.476-13.446 13.446c-0.271 0.27-0.645 0.436-1.058 0.436-0.828 0-1.5-0.672-1.5-1.5 0-0.427 0.178-0.812 0.465-1.086l0.001-0.001 14.456-14.458c0.273-0.283 0.656-0.46 1.080-0.46h0.002c0.027 0 0.053 0 0.080 0.002h0.012c0.032 0.002 0.057 0.005 0.081 0.008l-0.009-0.001c0.367 0.040 0.694 0.212 0.933 0.468l5.903 5.9v-1.377c0-0.828 0.672-1.5 1.5-1.5s1.5 0.672 1.5 1.5v0 4.378l5.598 5.598-0.004 0.004c0.25 0.268 0.406 0.625 0.406 1.020zM29 19.5v10.5c0 0.828-0.672 1.5-1.5 1.5v0h-3v-12h-6v12h-14c-0.828 0-1.5-0.672-1.5-1.5v0-10.5l13-13zM13.5 19.5h-6v6h6z"/>
</symbol><symbol id="icon-image" viewBox="0 0 32 32">
<title>image</title>
<path d="M30.5 32h-29c-0.828 0-1.5-0.672-1.5-1.5v0-29c0-0.828 0.672-1.5 1.5-1.5v0h29c0.828 0 1.5 0.672 1.5 1.5v0 29c0 0.828-0.672 1.5-1.5 1.5v0zM29 3h-26v26h26zM12 4.5c0.828 0 1.5 0.672 1.5 1.5s-0.672 1.5-1.5 1.5v0h-4.5v4.5c0 0.828-0.672 1.5-1.5 1.5s-1.5-0.672-1.5-1.5v0-7.5zM4.5 20c0-0.828 0.672-1.5 1.5-1.5s1.5 0.672 1.5 1.5v0 4.5h4.5c0.828 0 1.5 0.672 1.5 1.5s-0.672 1.5-1.5 1.5v0h-7.5zM20 4.5h7.5v7.5c0 0.828-0.672 1.5-1.5 1.5s-1.5-0.672-1.5-1.5v0-4.5h-4.5c-0.828 0-1.5-0.672-1.5-1.5s0.672-1.5 1.5-1.5v0zM20 24.5h4.5v-4.5c0-0.828 0.672-1.5 1.5-1.5s1.5 0.672 1.5 1.5v0 7.5h-7.5c-0.828 0-1.5-0.672-1.5-1.5s0.672-1.5 1.5-1.5v0z"/>
</symbol><symbol id="icon-instagram@2x" viewBox="0 0 26 26"><path d="M22.7 25.8H3.5a3.2 3.2 0 0 1-3.2-3.2V3.4A3.2 3.2 0 0 1 3.5.2h19.2a3.2 3.2 0 0 1 3.2 3.2v19.2a3.2 3.2 0 0 1-3.2 3.2zM13.1 8.04a4.957 4.957 0 0 0-4.498 2.88h-.005l-.022.054a4.93 4.93 0 0 0-.128.321c-.02.053-.04.104-.057.156a4.994 4.994 0 0 0-.095.34c-.014.054-.03.106-.042.16a4.987 4.987 0 0 0-.061.368c-.007.05-.017.099-.023.15a4.96 4.96 0 1 0 9.861 0c-.005-.051-.015-.1-.022-.15a4.982 4.982 0 0 0-.061-.368c-.012-.054-.028-.106-.042-.16a5 5 0 0 0-.095-.34c-.017-.052-.038-.103-.057-.156a4.936 4.936 0 0 0-.128-.32l-.022-.056h-.005A4.957 4.957 0 0 0 13.1 8.04zm9.92-3.68a1.28 1.28 0 0 0-1.28-1.28h-2.56a1.28 1.28 0 0 0-1.28 1.28v2.56c0 .707.573 1.28 1.28 1.28h2.56a1.28 1.28 0 0 0 1.28-1.28zm0 6.56h-2.36a7.84 7.84 0 0 1-7.56 9.92 7.84 7.84 0 0 1-7.56-9.92H3.18v10.72c0 .707.573 1.28 1.28 1.28h17.28a1.28 1.28 0 0 0 1.28-1.28z"/></symbol><symbol id="icon-komputer" viewBox="0 0 32 32">
<title>komputer</title>
<path d="M30 25h-9.5v2.5l2 2v0.5h-13v-0.5l2-2v-2.5h-9.5c-0.828 0-1.5-0.672-1.5-1.5v0-20c0-0.828 0.672-1.5 1.5-1.5v0h28c0.828 0 1.5 0.672 1.5 1.5v0 20c0 0.828-0.672 1.5-1.5 1.5v0zM29.5 4h-27v17h27zM13 11c0.414 0 0.79 0.168 1.060 0.439l0.94 0.94 2.94-2.94c0.274-0.289 0.661-0.469 1.090-0.469 0.828 0 1.5 0.672 1.5 1.5 0 0.429-0.18 0.816-0.469 1.089l-0.001 0.001-4 4c-0.271 0.273-0.646 0.441-1.061 0.441s-0.79-0.169-1.061-0.441l-2-2c-0.271-0.271-0.439-0.646-0.439-1.060 0-0.828 0.672-1.5 1.5-1.5 0 0 0 0 0.001 0h-0z"/>
</symbol><symbol id="icon-line_graph" viewBox="0 0 32 32">
<title>line_graph</title>
<path d="M30.5 32h-29c-0.828 0-1.5-0.672-1.5-1.5v0-29c0-0.828 0.672-1.5 1.5-1.5v0h29c0.828 0 1.5 0.672 1.5 1.5v0 29c0 0.828-0.672 1.5-1.5 1.5v0zM29 3h-26v26h26zM5.215 16.238l4-2.5c0.223-0.14 0.494-0.223 0.785-0.223 0.314 0 0.605 0.097 0.845 0.263l-0.005-0.003 0.006-0.008 6.63 4.42 7.639-5.391c0.24-0.17 0.538-0.271 0.86-0.271 0.828 0 1.5 0.672 1.5 1.5 0 0.488-0.233 0.921-0.593 1.195l-0.004 0.003-8.5 6c-0.243 0.179-0.548 0.286-0.878 0.286-0.323 0-0.622-0.103-0.866-0.277l0.005 0.003-6.657-4.438-3.135 1.96c-0.221 0.135-0.488 0.215-0.774 0.215-0.828 0-1.5-0.672-1.5-1.5 0-0.508 0.252-0.957 0.639-1.228l0.005-0.003z"/>
</symbol><symbol id="icon-magnifying@2x" viewBox="0 0 18 18">
<path d="M17.8 16.15a1.65 1.65 0 0 1-2.817 1.166l-4.836-4.835c-.982.58-2.124.919-3.347.919a6.6 6.6 0 1 1 6.6-6.6 6.558 6.558 0 0 1-.919 3.347l4.836 4.836c.298.298.483.71.483 1.167zm-11-14.3a4.95 4.95 0 1 0 0 9.9 4.95 4.95 0 0 0 0-9.9z"/></symbol><symbol id="icon-pinterest@2x" viewBox="0 0 20 26"><path d="M8.05 16.854c-.208.833-.419 1.706-.637 2.56-.215.842-.405 1.696-.718 2.47-.519 1.281-1.178 2.52-2.043 3.521-.575.667-.453.4-.626.365-.132-.028-.143-.157-.17-.345-.14-1.018-.044-2.195.008-3.34.06-1.303.334-2.387.589-3.47.484-2.064.946-4.087 1.435-6.164.032-.138.12-.366.09-.445-.222-.577-.366-1.095-.429-1.7a5.41 5.41 0 0 1 .14-1.944c.276-1.058.912-1.995 1.893-2.338.624-.216 1.315-.118 1.735.132.432.259.729.667.867 1.246.148.615.039 1.35-.08 1.891-.267 1.219-.618 2.134-.937 3.31-.158.583-.337 1.182-.19 1.812.137.578.438.976.848 1.275.426.31.93.48 1.625.455 1.228-.043 2.081-.828 2.651-1.568.913-1.185 1.465-2.784 1.675-4.686.068-.614.117-1.319.07-2.014-.088-1.284-.49-2.317-1.127-3.117-.606-.763-1.466-1.37-2.512-1.71-1.037-.34-2.472-.452-3.747-.234-2.318.397-3.952 1.714-4.915 3.533a7.078 7.078 0 0 0-.837 3.41c0 1.05.26 1.865.678 2.5.133.201.328.367.458.597.185.326-.028.811-.12 1.164-.11.425-.12 1.012-.617 1.022-.206.004-.464-.146-.638-.243-1.305-.721-2.097-2.033-2.422-3.734a8.934 8.934 0 0 1 0-3.238c.19-.967.544-1.858.937-2.581a9.238 9.238 0 0 1 3.459-3.563C5.559 1.023 6.818.56 8.35.337A16.42 16.42 0 0 1 9.955.205a9.638 9.638 0 0 1 4.326.81 8.849 8.849 0 0 1 2.98 2.146c.838.915 1.448 1.98 1.834 3.309.202.692.398 1.432.398 2.287 0 .858-.181 1.613-.308 2.368-.474 2.828-1.819 5.141-3.838 6.458a6.635 6.635 0 0 1-1.754.809c-.667.194-1.428.34-2.243.283a4.599 4.599 0 0 1-1.983-.577c-.54-.305-.994-.679-1.316-1.244z"/></symbol><symbol id="icon-schopping@2x" viewBox="0 0 18 15"><path d="M17.726 3.663h.001l-2.475 5.5a.824.824 0 0 1-.697.485l-7.128.475.412 1.176H15.6a1.65 1.65 0 1 1-1.65 1.65h-7.7A1.65 1.65 0 1 1 4.6 11.3h1.49L2.916 2.225h-1.89a.825.825 0 0 1 0-1.65H3.5c.36 0 .663.232.776.553h.003l.48 1.372h12.216a.825.825 0 0 1 .751 1.163zm-12.39.487l1.526 4.357 7.089-.473 1.748-3.884z"/></symbol><symbol id="icon-twitter@2x" viewBox="0 0 26 22"><path d="M17.513.601c2.034-.036 3.117.705 4.15 1.647.879-.075 2.02-.565 2.692-.907l.653-.357c-.384 1.037-.904 1.85-1.704 2.466-.178.136-.354.321-.577.408v.013c1.14-.011 2.08-.526 2.973-.805v.013c-.469.745-1.104 1.502-1.781 2.044l-.82.651c.015 1.207-.018 2.359-.244 3.373-1.311 5.895-4.787 9.897-10.288 11.612-1.976.615-5.168.868-7.432.306-1.122-.278-2.136-.593-3.088-1.008a12.285 12.285 0 0 1-1.486-.768L.1 19.01c.51.015 1.108.156 1.678.063.517-.083 1.023-.061 1.5-.165 1.188-.261 2.243-.606 3.151-1.138.441-.257 1.11-.56 1.423-.932-.59.01-1.125-.127-1.563-.281-1.7-.6-2.688-1.703-3.332-3.36.515.057 1.998.19 2.345-.102-.648-.036-1.271-.411-1.717-.69-1.367-.855-2.481-2.289-2.473-4.496l.538.255c.344.145.693.222 1.102.307.173.036.52.137.718.063h-.026c-.264-.307-.695-.512-.96-.843-.878-1.09-1.7-2.766-1.18-4.764a6.1 6.1 0 0 1 .564-1.367l.026.012c.102.214.33.371.474.55.448.555 1 1.054 1.563 1.494 1.918 1.5 3.645 2.422 6.42 3.104.703.174 1.516.306 2.357.307-.236-.687-.16-1.8.025-2.465.468-1.674 1.483-2.88 2.973-3.525a6.311 6.311 0 0 1 1.166-.359l.64-.076z"/></symbol></svg>